<svg width="30" height="24" viewBox="0 0 30 24" fill="none" xmlns="http://www.w3.org/2000/svg">
<path d="M5.00004 19.4974V13.939L11.6801 17.7741C12.6904 18.3543 13.8351 18.6596 15.0001 18.6596C16.1652 18.6596 17.3099 18.3543 18.3202 17.7741L25.0002 13.9407V19.4974C25.0004 19.6069 24.979 19.7154 24.9373 19.8166C24.8955 19.9179 24.8342 20.0099 24.7569 20.0874L24.7535 20.0891L24.7502 20.0941L24.7385 20.1041L24.7002 20.1408L24.5669 20.2641C24.404 20.407 24.2367 20.5449 24.0652 20.6774C23.4666 21.1371 22.8304 21.5457 22.1635 21.8991C19.9577 23.0692 17.497 23.6761 15.0001 23.6658C12.5032 23.6761 10.0425 23.0692 7.83673 21.8991C7.17037 21.5457 6.53481 21.137 5.93672 20.6774C5.71679 20.5079 5.50436 20.3288 5.30005 20.1408L5.26171 20.1041C5.18003 20.0254 5.11483 19.9312 5.06991 19.8271C5.02499 19.7229 5.00124 19.6108 5.00004 19.4974ZM29.5819 9.38734L17.4902 16.3291C16.7324 16.7642 15.8739 16.9932 15.0001 16.9932C14.1264 16.9932 13.2678 16.7642 12.5101 16.3291L1.66668 10.104V17.8307C1.66668 18.0518 1.57888 18.2637 1.4226 18.42C1.26632 18.5763 1.05436 18.6641 0.833341 18.6641C0.612325 18.6641 0.400362 18.5763 0.24408 18.42C0.0877982 18.2637 1.28218e-07 18.0518 1.28218e-07 17.8307V8.664C-8.32046e-05 8.51375 0.0404553 8.36628 0.117325 8.23718C0.194195 8.10809 0.304536 8.00218 0.43667 7.93066L12.5101 0.998933C13.2677 0.563306 14.1263 0.334045 15.0001 0.334045C15.874 0.334045 16.7326 0.563306 17.4902 0.998933L29.5819 7.94233C29.709 8.01536 29.8145 8.12061 29.8879 8.24746C29.9614 8.37431 30 8.51827 30 8.66483C30 8.81139 29.9614 8.95535 29.8879 9.08221C29.8145 9.20906 29.709 9.31431 29.5819 9.38734Z" fill="black"/>
</svg>
