<svg width="25" height="32" viewBox="0 0 25 32" fill="none" xmlns="http://www.w3.org/2000/svg">
<path d="M20.3125 0H4.6875C2.03125 0 0 2.03125 0 4.6875V14.0625H13.4375L9.84375 10.4688C9.21875 9.84375 9.21875 8.90625 9.84375 8.28125C10.4688 7.65625 11.4062 7.65625 12.0312 8.28125L18.2812 14.5312C18.9062 15.1562 18.9062 16.0938 18.2812 16.7188L12.0312 22.9688C11.4062 23.5938 10.4688 23.5938 9.84375 22.9688C9.21875 22.3438 9.21875 21.4062 9.84375 20.7812L13.4375 17.1875H0V26.5625C0 29.2188 2.03125 31.25 4.6875 31.25H20.3125C22.9688 31.25 25 29.2188 25 26.5625V4.6875C25 2.03125 22.9688 0 20.3125 0Z" fill="black"/>
</svg>
