<svg width="27" height="28" viewBox="0 0 27 28" fill="none" xmlns="http://www.w3.org/2000/svg">
<path fill-rule="evenodd" clip-rule="evenodd" d="M3.18163 0.915573C3.47689 0.620757 3.83144 0.392056 4.22177 0.244627C4.6121 0.0971977 5.02931 0.0344061 5.44575 0.0604134C5.86218 0.0864207 6.26834 0.200633 6.63729 0.395481C7.00625 0.59033 7.32958 0.861365 7.58587 1.19063L10.6148 5.08188C11.17 5.79567 11.3658 6.72545 11.1464 7.60292L10.2233 11.2984C10.1756 11.4898 10.1782 11.6903 10.2308 11.8804C10.2835 12.0706 10.3844 12.2438 10.5237 12.3835L14.6698 16.5295C14.8096 16.6692 14.9831 16.7702 15.1736 16.8229C15.364 16.8755 15.5648 16.8779 15.7565 16.8299L19.4503 15.9069C19.8833 15.7986 20.3353 15.7902 20.7721 15.8823C21.2088 15.9743 21.6189 16.1645 21.9714 16.4384L25.8626 19.4657C27.2615 20.5541 27.3897 22.6212 26.1377 23.8716L24.3928 25.6164C23.1441 26.8651 21.2778 27.4136 19.5381 26.801C15.0852 25.2343 11.0422 22.685 7.70905 19.3425C4.36671 16.0098 1.81751 11.9674 0.250537 7.51518C-0.360319 5.77711 0.188101 3.9091 1.43681 2.66039L3.18163 0.915573Z" fill="white"/>
</svg>
