<svg width="35" height="44" viewBox="0 0 35 44" fill="none" xmlns="http://www.w3.org/2000/svg">
<path d="M0.6875 22C0.6875 22.5702 0.911384 23.1171 1.3099 23.5203C1.70841 23.9235 2.24891 24.15 2.8125 24.15H18.9412L14.0538 29.0735C13.8546 29.2734 13.6965 29.5112 13.5886 29.7732C13.4807 30.0352 13.4252 30.3162 13.4252 30.6C13.4252 30.8838 13.4807 31.1648 13.5886 31.4268C13.6965 31.6888 13.8546 31.9266 14.0538 32.1265C14.2513 32.328 14.4863 32.488 14.7453 32.5971C15.0042 32.7063 15.282 32.7625 15.5625 32.7625C15.843 32.7625 16.1208 32.7063 16.3797 32.5971C16.6387 32.488 16.8737 32.328 17.0713 32.1265L25.5713 23.5265C25.7647 23.322 25.9164 23.0809 26.0175 22.817C26.23 22.2936 26.23 21.7064 26.0175 21.183C25.9164 20.9191 25.7647 20.678 25.5713 20.4735L17.0713 11.8735C16.8731 11.673 16.6379 11.514 16.379 11.4055C16.1202 11.297 15.8427 11.2412 15.5625 11.2412C15.2823 11.2412 15.0048 11.297 14.746 11.4055C14.4871 11.514 14.2519 11.673 14.0538 11.8735C13.8556 12.074 13.6985 12.3119 13.5912 12.5739C13.484 12.8358 13.4288 13.1165 13.4288 13.4C13.4288 13.6835 13.484 13.9642 13.5912 14.2261C13.6985 14.4881 13.8556 14.726 14.0538 14.9265L18.9412 19.85H2.8125C2.24891 19.85 1.70841 20.0765 1.3099 20.4797C0.911384 20.8829 0.6875 21.4298 0.6875 22ZM28.3125 0.5H7.0625C5.37175 0.5 3.75024 1.17955 2.55469 2.38916C1.35915 3.59877 0.6875 5.23935 0.6875 6.95V13.4C0.6875 13.9702 0.911384 14.5171 1.3099 14.9203C1.70841 15.3235 2.24891 15.55 2.8125 15.55C3.37609 15.55 3.91659 15.3235 4.3151 14.9203C4.71362 14.5171 4.9375 13.9702 4.9375 13.4V6.95C4.9375 6.37978 5.16138 5.83292 5.5599 5.42972C5.95841 5.02652 6.49891 4.8 7.0625 4.8H28.3125C28.8761 4.8 29.4166 5.02652 29.8151 5.42972C30.2136 5.83292 30.4375 6.37978 30.4375 6.95V37.05C30.4375 37.6202 30.2136 38.1671 29.8151 38.5703C29.4166 38.9735 28.8761 39.2 28.3125 39.2H7.0625C6.49891 39.2 5.95841 38.9735 5.5599 38.5703C5.16138 38.1671 4.9375 37.6202 4.9375 37.05V30.6C4.9375 30.0298 4.71362 29.4829 4.3151 29.0797C3.91659 28.6765 3.37609 28.45 2.8125 28.45C2.24891 28.45 1.70841 28.6765 1.3099 29.0797C0.911384 29.4829 0.6875 30.0298 0.6875 30.6V37.05C0.6875 38.7606 1.35915 40.4012 2.55469 41.6108C3.75024 42.8204 5.37175 43.5 7.0625 43.5H28.3125C30.0033 43.5 31.6248 42.8204 32.8203 41.6108C34.0159 40.4012 34.6875 38.7606 34.6875 37.05V6.95C34.6875 5.23935 34.0159 3.59877 32.8203 2.38916C31.6248 1.17955 30.0033 0.5 28.3125 0.5Z" fill="white"/>
</svg>
