<svg width="700" height="700" viewBox="0 0 700 700" fill="none" xmlns="http://www.w3.org/2000/svg">
<path d="M350 700C543.3 700 700 543.3 700 350C700 156.7 543.3 0 350 0C156.7 0 0 156.7 0 350C0 543.3 156.7 700 350 700Z" fill="white"/>
<path d="M581.217 557.87H474.722L265.828 128.204H371.504L581.217 557.87Z" fill="#0571F0"/>
<path d="M184.728 571.386C221.375 571.386 251.083 541.678 251.083 505.032C251.083 468.385 221.375 438.677 184.728 438.677C148.081 438.677 118.373 468.385 118.373 505.032C118.373 541.678 148.081 571.386 184.728 571.386Z" fill="#0571F0"/>
</svg>
