<svg width="134" height="128" viewBox="0 0 134 128" fill="none" xmlns="http://www.w3.org/2000/svg">
<g clip-path="url(#clip0_356_9058)">
<path d="M67 164C122.228 164 167 119.228 167 64C167 8.77153 122.228 -36 67 -36C11.7715 -36 -33 8.77153 -33 64C-33 119.228 11.7715 164 67 164Z" fill="#0571F0"/>
<path d="M133.121 123.45H102.693L43.0093 0.68811H73.2024L133.121 123.45Z" fill="white"/>
<path d="M19.8379 127.312C30.3084 127.312 38.7964 118.824 38.7964 108.353C38.7964 97.883 30.3084 89.395 19.8379 89.395C9.36744 89.395 0.879456 97.883 0.879456 108.353C0.879456 118.824 9.36744 127.312 19.8379 127.312Z" fill="white"/>
</g>
<defs>
<clipPath id="clip0_356_9058">
<rect width="134" height="128" fill="white"/>
</clipPath>
</defs>
</svg>
