<svg width="27" height="22" viewBox="0 0 27 22" fill="none" xmlns="http://www.w3.org/2000/svg">
<path d="M24.3 0.0546875H2.7C1.215 0.0546875 0.0135 1.26969 0.0135 2.75469L0 18.9547C0 20.4397 1.215 21.6547 2.7 21.6547H24.3C25.785 21.6547 27 20.4397 27 18.9547V2.75469C27 1.26969 25.785 0.0546875 24.3 0.0546875ZM23.76 5.79219L14.2155 11.7592C13.7835 12.0292 13.2165 12.0292 12.7845 11.7592L3.24 5.79219C3.10463 5.7162 2.98609 5.61353 2.89155 5.4904C2.79701 5.36727 2.72843 5.22624 2.68998 5.07584C2.65152 4.92544 2.64398 4.7688 2.66781 4.6154C2.69164 4.462 2.74635 4.31504 2.82863 4.18339C2.91091 4.05175 3.01904 3.93817 3.14648 3.84953C3.27392 3.76089 3.41803 3.69903 3.57007 3.66769C3.72211 3.63635 3.87893 3.63619 4.03104 3.66722C4.18315 3.69824 4.32738 3.75981 4.455 3.84819L13.5 9.50469L22.545 3.84819C22.6726 3.75981 22.8169 3.69824 22.969 3.66722C23.1211 3.63619 23.2779 3.63635 23.4299 3.66769C23.582 3.69903 23.7261 3.76089 23.8535 3.84953C23.981 3.93817 24.0891 4.05175 24.1714 4.18339C24.2536 4.31504 24.3084 4.462 24.3322 4.6154C24.356 4.7688 24.3485 4.92544 24.31 5.07584C24.2716 5.22624 24.203 5.36727 24.1085 5.4904C24.0139 5.61353 23.8954 5.7162 23.76 5.79219V5.79219Z" fill="white"/>
</svg>
